<?xml version="1.0" encoding="UTF-8"?>
<svg version="1.1" xmlns="http://www.w3.org/2000/svg" viewBox="0 0 24 24" width="24" height="24">
<rect x="7" y="1" width="1" height="1" fill="#DFDDDB"/>
<rect x="8" y="1" width="1" height="1" fill="#8E8C8D"/>
<rect x="9" y="1" width="1" height="1" fill="#CDCCCD"/>
<rect x="10" y="1" width="1" height="1" fill="#151037"/>
<rect x="11" y="1" width="1" height="1" fill="#29253A"/>
<rect x="12" y="1" width="1" height="1" fill="#D6D5D7"/>
<rect x="13" y="1" width="1" height="1" fill="#3D3C44"/>
<rect x="14" y="1" width="1" height="1" fill="#151037"/>
<rect x="15" y="1" width="1" height="1" fill="#151037"/>
<rect x="6" y="2" width="1" height="1" fill="#A6A5A5"/>
<rect x="7" y="2" width="1" height="1" fill="#B5B4B3"/>
<rect x="8" y="2" width="1" height="1" fill="#E3E2D5"/>
<rect x="9" y="2" width="1" height="1" fill="#403D55"/>
<rect x="10" y="2" width="1" height="1" fill="#151037"/>
<rect x="11" y="2" width="1" height="1" fill="#151037"/>
<rect x="12" y="2" width="1" height="1" fill="#151037"/>
<rect x="13" y="2" width="1" height="1" fill="#151037"/>
<rect x="14" y="2" width="1" height="1" fill="#191439"/>
<rect x="15" y="2" width="1" height="1" fill="#727078"/>
<rect x="16" y="2" width="1" height="1" fill="#C2C0C2"/>
<rect x="17" y="2" width="1" height="1" fill="#C3C3C1"/>
<rect x="4" y="3" width="1" height="1" fill="#A1A0A0"/>
<rect x="5" y="3" width="1" height="1" fill="#C6C3C0"/>
<rect x="6" y="3" width="1" height="1" fill="#151037"/>
<rect x="7" y="3" width="1" height="1" fill="#151037"/>
<rect x="8" y="3" width="1" height="1" fill="#B5B4BC"/>
<rect x="9" y="3" width="1" height="1" fill="#0F0D27"/>
<rect x="10" y="3" width="1" height="1" fill="#433F60"/>
<rect x="11" y="3" width="1" height="1" fill="#201B42"/>
<rect x="12" y="3" width="1" height="1" fill="#C2C0CE"/>
<rect x="13" y="3" width="1" height="1" fill="#C4C2D0"/>
<rect x="14" y="3" width="1" height="1" fill="#272346"/>
<rect x="15" y="3" width="1" height="1" fill="#161334"/>
<rect x="16" y="3" width="1" height="1" fill="#727078"/>
<rect x="17" y="3" width="1" height="1" fill="#151037"/>
<rect x="18" y="3" width="1" height="1" fill="#DFDFDF"/>
<rect x="19" y="3" width="1" height="1" fill="#151037"/>
<rect x="3" y="4" width="1" height="1" fill="#A1A0A0"/>
<rect x="4" y="4" width="1" height="1" fill="#A1A0A0"/>
<rect x="5" y="4" width="1" height="1" fill="#C4C2C3"/>
<rect x="6" y="4" width="1" height="1" fill="#B5B3B8"/>
<rect x="7" y="4" width="1" height="1" fill="#181438"/>
<rect x="8" y="4" width="1" height="1" fill="#181438"/>
<rect x="9" y="4" width="1" height="1" fill="#444062"/>
<rect x="10" y="4" width="1" height="1" fill="#B3B0B6"/>
<rect x="11" y="4" width="1" height="1" fill="#201B42"/>
<rect x="12" y="4" width="1" height="1" fill="#C0BFC5"/>
<rect x="13" y="4" width="1" height="1" fill="#151037"/>
<rect x="14" y="4" width="1" height="1" fill="#D8D8D7"/>
<rect x="15" y="4" width="1" height="1" fill="#0E0B25"/>
<rect x="16" y="4" width="1" height="1" fill="#191439"/>
<rect x="17" y="4" width="1" height="1" fill="#727078"/>
<rect x="18" y="4" width="1" height="1" fill="#727078"/>
<rect x="19" y="4" width="1" height="1" fill="#A5A5A5"/>
<rect x="20" y="4" width="1" height="1" fill="#CECDCE"/>
<rect x="3" y="5" width="1" height="1" fill="#E6E6E6"/>
<rect x="4" y="5" width="1" height="1" fill="#151037"/>
<rect x="5" y="5" width="1" height="1" fill="#3D3A4F"/>
<rect x="6" y="5" width="1" height="1" fill="#151034"/>
<rect x="7" y="5" width="1" height="1" fill="#444062"/>
<rect x="8" y="5" width="1" height="1" fill="#BABABE"/>
<rect x="9" y="5" width="1" height="1" fill="#151037"/>
<rect x="10" y="5" width="1" height="1" fill="#151037"/>
<rect x="11" y="5" width="1" height="1" fill="#151037"/>
<rect x="12" y="5" width="1" height="1" fill="#151037"/>
<rect x="13" y="5" width="1" height="1" fill="#151037"/>
<rect x="14" y="5" width="1" height="1" fill="#151037"/>
<rect x="15" y="5" width="1" height="1" fill="#151037"/>
<rect x="16" y="5" width="1" height="1" fill="#151037"/>
<rect x="17" y="5" width="1" height="1" fill="#28244A"/>
<rect x="18" y="5" width="1" height="1" fill="#727078"/>
<rect x="19" y="5" width="1" height="1" fill="#1A1537"/>
<rect x="20" y="5" width="1" height="1" fill="#6A687A"/>
<rect x="2" y="6" width="1" height="1" fill="#151037"/>
<rect x="3" y="6" width="1" height="1" fill="#151037"/>
<rect x="4" y="6" width="1" height="1" fill="#DFDFDD"/>
<rect x="5" y="6" width="1" height="1" fill="#D4D4DC"/>
<rect x="6" y="6" width="1" height="1" fill="#444062"/>
<rect x="7" y="6" width="1" height="1" fill="#151037"/>
<rect x="8" y="6" width="1" height="1" fill="#151037"/>
<rect x="9" y="6" width="1" height="1" fill="#151037"/>
<rect x="10" y="6" width="1" height="1" fill="#1F1C40"/>
<rect x="11" y="6" width="1" height="1" fill="#787885"/>
<rect x="12" y="6" width="1" height="1" fill="#0A133D"/>
<rect x="13" y="6" width="1" height="1" fill="#12113B"/>
<rect x="14" y="6" width="1" height="1" fill="#797685"/>
<rect x="15" y="6" width="1" height="1" fill="#151037"/>
<rect x="16" y="6" width="1" height="1" fill="#151037"/>
<rect x="17" y="6" width="1" height="1" fill="#D9D9DF"/>
<rect x="18" y="6" width="1" height="1" fill="#151037"/>
<rect x="19" y="6" width="1" height="1" fill="#D0CFDD"/>
<rect x="20" y="6" width="1" height="1" fill="#2F2D40"/>
<rect x="21" y="6" width="1" height="1" fill="#BDBDC1"/>
<rect x="1" y="7" width="1" height="1" fill="#C0BBC9"/>
<rect x="2" y="7" width="1" height="1" fill="#151037"/>
<rect x="3" y="7" width="1" height="1" fill="#1B153A"/>
<rect x="4" y="7" width="1" height="1" fill="#D4D4DC"/>
<rect x="5" y="7" width="1" height="1" fill="#444062"/>
<rect x="6" y="7" width="1" height="1" fill="#CFD2D2"/>
<rect x="7" y="7" width="1" height="1" fill="#62606E"/>
<rect x="8" y="7" width="1" height="1" fill="#0A2044"/>
<rect x="9" y="7" width="1" height="1" fill="#212044"/>
<rect x="10" y="7" width="1" height="1" fill="#39DBF2"/>
<rect x="11" y="7" width="1" height="1" fill="#0F4E7E"/>
<rect x="12" y="7" width="1" height="1" fill="#235887"/>
<rect x="13" y="7" width="1" height="1" fill="#3AD5EC"/>
<rect x="14" y="7" width="1" height="1" fill="#254C81"/>
<rect x="15" y="7" width="1" height="1" fill="#605E72"/>
<rect x="16" y="7" width="1" height="1" fill="#151037"/>
<rect x="17" y="7" width="1" height="1" fill="#66656E"/>
<rect x="18" y="7" width="1" height="1" fill="#D9D9DF"/>
<rect x="19" y="7" width="1" height="1" fill="#151037"/>
<rect x="20" y="7" width="1" height="1" fill="#D0CFDD"/>
<rect x="21" y="7" width="1" height="1" fill="#9B9AA0"/>
<rect x="22" y="7" width="1" height="1" fill="#151037"/>
<rect x="1" y="8" width="1" height="1" fill="#16122C"/>
<rect x="2" y="8" width="1" height="1" fill="#151037"/>
<rect x="3" y="8" width="1" height="1" fill="#3A3751"/>
<rect x="4" y="8" width="1" height="1" fill="#151034"/>
<rect x="5" y="8" width="1" height="1" fill="#1C163C"/>
<rect x="6" y="8" width="1" height="1" fill="#151037"/>
<rect x="7" y="8" width="1" height="1" fill="#0D0D32"/>
<rect x="8" y="8" width="1" height="1" fill="#122143"/>
<rect x="9" y="8" width="1" height="1" fill="#2ECBDA"/>
<rect x="10" y="8" width="1" height="1" fill="#165B8A"/>
<rect x="11" y="8" width="1" height="1" fill="#43C8E5"/>
<rect x="12" y="8" width="1" height="1" fill="#43C8E5"/>
<rect x="13" y="8" width="1" height="1" fill="#43C8E5"/>
<rect x="14" y="8" width="1" height="1" fill="#55BCCE"/>
<rect x="15" y="8" width="1" height="1" fill="#083051"/>
<rect x="16" y="8" width="1" height="1" fill="#151037"/>
<rect x="17" y="8" width="1" height="1" fill="#151037"/>
<rect x="18" y="8" width="1" height="1" fill="#A2A2A9"/>
<rect x="19" y="8" width="1" height="1" fill="#A2A2A9"/>
<rect x="20" y="8" width="1" height="1" fill="#151037"/>
<rect x="21" y="8" width="1" height="1" fill="#9B9AA0"/>
<rect x="22" y="8" width="1" height="1" fill="#E4E4E7"/>
<rect x="0" y="9" width="1" height="1" fill="#59566D"/>
<rect x="1" y="9" width="1" height="1" fill="#ABA9BC"/>
<rect x="2" y="9" width="1" height="1" fill="#474560"/>
<rect x="3" y="9" width="1" height="1" fill="#151034"/>
<rect x="4" y="9" width="1" height="1" fill="#726E7F"/>
<rect x="5" y="9" width="1" height="1" fill="#151037"/>
<rect x="6" y="9" width="1" height="1" fill="#0C1F43"/>
<rect x="7" y="9" width="1" height="1" fill="#C3C2C5"/>
<rect x="8" y="9" width="1" height="1" fill="#E6E6E7"/>
<rect x="9" y="9" width="1" height="1" fill="#121036"/>
<rect x="10" y="9" width="1" height="1" fill="#121036"/>
<rect x="11" y="9" width="1" height="1" fill="#121036"/>
<rect x="12" y="9" width="1" height="1" fill="#17153C"/>
<rect x="13" y="9" width="1" height="1" fill="#121036"/>
<rect x="14" y="9" width="1" height="1" fill="#46BED4"/>
<rect x="15" y="9" width="1" height="1" fill="#062344"/>
<rect x="16" y="9" width="1" height="1" fill="#151037"/>
<rect x="17" y="9" width="1" height="1" fill="#151037"/>
<rect x="18" y="9" width="1" height="1" fill="#151037"/>
<rect x="19" y="9" width="1" height="1" fill="#AFAEB7"/>
<rect x="20" y="9" width="1" height="1" fill="#151037"/>
<rect x="21" y="9" width="1" height="1" fill="#151037"/>
<rect x="22" y="9" width="1" height="1" fill="#86848A"/>
<rect x="0" y="10" width="1" height="1" fill="#151037"/>
<rect x="1" y="10" width="1" height="1" fill="#110E2C"/>
<rect x="2" y="10" width="1" height="1" fill="#0F0C2C"/>
<rect x="3" y="10" width="1" height="1" fill="#525064"/>
<rect x="4" y="10" width="1" height="1" fill="#5B5963"/>
<rect x="5" y="10" width="1" height="1" fill="#151037"/>
<rect x="6" y="10" width="1" height="1" fill="#130F32"/>
<rect x="7" y="10" width="1" height="1" fill="#121036"/>
<rect x="8" y="10" width="1" height="1" fill="#100D33"/>
<rect x="9" y="10" width="1" height="1" fill="#100D33"/>
<rect x="10" y="10" width="1" height="1" fill="#100D33"/>
<rect x="11" y="10" width="1" height="1" fill="#04233F"/>
<rect x="12" y="10" width="1" height="1" fill="#111038"/>
<rect x="13" y="10" width="1" height="1" fill="#111138"/>
<rect x="14" y="10" width="1" height="1" fill="#111138"/>
<rect x="15" y="10" width="1" height="1" fill="#4A485B"/>
<rect x="16" y="10" width="1" height="1" fill="#151037"/>
<rect x="17" y="10" width="1" height="1" fill="#151037"/>
<rect x="18" y="10" width="1" height="1" fill="#151037"/>
<rect x="19" y="10" width="1" height="1" fill="#C8C6CD"/>
<rect x="20" y="10" width="1" height="1" fill="#151037"/>
<rect x="21" y="10" width="1" height="1" fill="#151037"/>
<rect x="22" y="10" width="1" height="1" fill="#151037"/>
<rect x="23" y="10" width="1" height="1" fill="#151037"/>
<rect x="0" y="11" width="1" height="1" fill="#D0CED3"/>
<rect x="1" y="11" width="1" height="1" fill="#100C2F"/>
<rect x="2" y="11" width="1" height="1" fill="#151037"/>
<rect x="3" y="11" width="1" height="1" fill="#817E88"/>
<rect x="4" y="11" width="1" height="1" fill="#151037"/>
<rect x="5" y="11" width="1" height="1" fill="#151037"/>
<rect x="6" y="11" width="1" height="1" fill="#312D49"/>
<rect x="7" y="11" width="1" height="1" fill="#121138"/>
<rect x="8" y="11" width="1" height="1" fill="#1D1B40"/>
<rect x="9" y="11" width="1" height="1" fill="#0C082C"/>
<rect x="10" y="11" width="1" height="1" fill="#0C0C27"/>
<rect x="11" y="11" width="1" height="1" fill="#39C8DA"/>
<rect x="12" y="11" width="1" height="1" fill="#39C8DA"/>
<rect x="13" y="11" width="1" height="1" fill="#E5F9F9"/>
<rect x="14" y="11" width="1" height="1" fill="#111138"/>
<rect x="15" y="11" width="1" height="1" fill="#111138"/>
<rect x="16" y="11" width="1" height="1" fill="#151037"/>
<rect x="17" y="11" width="1" height="1" fill="#151037"/>
<rect x="18" y="11" width="1" height="1" fill="#151037"/>
<rect x="19" y="11" width="1" height="1" fill="#151037"/>
<rect x="20" y="11" width="1" height="1" fill="#0F0D29"/>
<rect x="21" y="11" width="1" height="1" fill="#151037"/>
<rect x="22" y="11" width="1" height="1" fill="#E7E5E9"/>
<rect x="23" y="11" width="1" height="1" fill="#312E3C"/>
<rect x="0" y="12" width="1" height="1" fill="#C1C1C2"/>
<rect x="1" y="12" width="1" height="1" fill="#151037"/>
<rect x="2" y="12" width="1" height="1" fill="#151037"/>
<rect x="3" y="12" width="1" height="1" fill="#3A3743"/>
<rect x="4" y="12" width="1" height="1" fill="#151037"/>
<rect x="5" y="12" width="1" height="1" fill="#151037"/>
<rect x="6" y="12" width="1" height="1" fill="#163652"/>
<rect x="7" y="12" width="1" height="1" fill="#0F1037"/>
<rect x="8" y="12" width="1" height="1" fill="#165888"/>
<rect x="9" y="12" width="1" height="1" fill="#0C3452"/>
<rect x="10" y="12" width="1" height="1" fill="#012644"/>
<rect x="11" y="12" width="1" height="1" fill="#031A39"/>
<rect x="12" y="12" width="1" height="1" fill="#39C8DA"/>
<rect x="13" y="12" width="1" height="1" fill="#071F43"/>
<rect x="14" y="12" width="1" height="1" fill="#111138"/>
<rect x="15" y="12" width="1" height="1" fill="#121036"/>
<rect x="16" y="12" width="1" height="1" fill="#151037"/>
<rect x="17" y="12" width="1" height="1" fill="#151037"/>
<rect x="18" y="12" width="1" height="1" fill="#151037"/>
<rect x="19" y="12" width="1" height="1" fill="#5B586B"/>
<rect x="20" y="12" width="1" height="1" fill="#CCCAD1"/>
<rect x="21" y="12" width="1" height="1" fill="#151037"/>
<rect x="22" y="12" width="1" height="1" fill="#D7D7DC"/>
<rect x="23" y="12" width="1" height="1" fill="#7A7880"/>
<rect x="0" y="13" width="1" height="1" fill="#151037"/>
<rect x="1" y="13" width="1" height="1" fill="#151037"/>
<rect x="2" y="13" width="1" height="1" fill="#151037"/>
<rect x="3" y="13" width="1" height="1" fill="#D1CFCF"/>
<rect x="4" y="13" width="1" height="1" fill="#151037"/>
<rect x="5" y="13" width="1" height="1" fill="#151037"/>
<rect x="6" y="13" width="1" height="1" fill="#424057"/>
<rect x="7" y="13" width="1" height="1" fill="#0C0C30"/>
<rect x="8" y="13" width="1" height="1" fill="#121036"/>
<rect x="9" y="13" width="1" height="1" fill="#235080"/>
<rect x="10" y="13" width="1" height="1" fill="#121036"/>
<rect x="11" y="13" width="1" height="1" fill="#111138"/>
<rect x="12" y="13" width="1" height="1" fill="#032745"/>
<rect x="13" y="13" width="1" height="1" fill="#062343"/>
<rect x="14" y="13" width="1" height="1" fill="#41417C"/>
<rect x="15" y="13" width="1" height="1" fill="#404081"/>
<rect x="16" y="13" width="1" height="1" fill="#151037"/>
<rect x="17" y="13" width="1" height="1" fill="#151037"/>
<rect x="18" y="13" width="1" height="1" fill="#151037"/>
<rect x="19" y="13" width="1" height="1" fill="#161334"/>
<rect x="20" y="13" width="1" height="1" fill="#BBBAC1"/>
<rect x="21" y="13" width="1" height="1" fill="#151037"/>
<rect x="22" y="13" width="1" height="1" fill="#0B0921"/>
<rect x="23" y="13" width="1" height="1" fill="#151037"/>
<rect x="0" y="14" width="1" height="1" fill="#151037"/>
<rect x="1" y="14" width="1" height="1" fill="#151037"/>
<rect x="2" y="14" width="1" height="1" fill="#151037"/>
<rect x="3" y="14" width="1" height="1" fill="#C9C7CB"/>
<rect x="4" y="14" width="1" height="1" fill="#151037"/>
<rect x="5" y="14" width="1" height="1" fill="#151037"/>
<rect x="6" y="14" width="1" height="1" fill="#424057"/>
<rect x="7" y="14" width="1" height="1" fill="#11102A"/>
<rect x="8" y="14" width="1" height="1" fill="#121036"/>
<rect x="9" y="14" width="1" height="1" fill="#0A183D"/>
<rect x="10" y="14" width="1" height="1" fill="#38CCE7"/>
<rect x="11" y="14" width="1" height="1" fill="#0F1037"/>
<rect x="12" y="14" width="1" height="1" fill="#0F1037"/>
<rect x="13" y="14" width="1" height="1" fill="#1E1A4E"/>
<rect x="14" y="14" width="1" height="1" fill="#404081"/>
<rect x="15" y="14" width="1" height="1" fill="#404081"/>
<rect x="16" y="14" width="1" height="1" fill="#323051"/>
<rect x="17" y="14" width="1" height="1" fill="#151037"/>
<rect x="18" y="14" width="1" height="1" fill="#151037"/>
<rect x="19" y="14" width="1" height="1" fill="#161334"/>
<rect x="20" y="14" width="1" height="1" fill="#DEDEE3"/>
<rect x="21" y="14" width="1" height="1" fill="#151037"/>
<rect x="22" y="14" width="1" height="1" fill="#151037"/>
<rect x="23" y="14" width="1" height="1" fill="#151037"/>
<rect x="0" y="15" width="1" height="1" fill="#C1C1C2"/>
<rect x="1" y="15" width="1" height="1" fill="#151037"/>
<rect x="2" y="15" width="1" height="1" fill="#151037"/>
<rect x="3" y="15" width="1" height="1" fill="#ABAAB2"/>
<rect x="4" y="15" width="1" height="1" fill="#151037"/>
<rect x="5" y="15" width="1" height="1" fill="#151037"/>
<rect x="6" y="15" width="1" height="1" fill="#293654"/>
<rect x="7" y="15" width="1" height="1" fill="#0F1037"/>
<rect x="8" y="15" width="1" height="1" fill="#081D42"/>
<rect x="9" y="15" width="1" height="1" fill="#0B163E"/>
<rect x="10" y="15" width="1" height="1" fill="#0C0C31"/>
<rect x="11" y="15" width="1" height="1" fill="#062448"/>
<rect x="12" y="15" width="1" height="1" fill="#151037"/>
<rect x="13" y="15" width="1" height="1" fill="#414078"/>
<rect x="14" y="15" width="1" height="1" fill="#404081"/>
<rect x="15" y="15" width="1" height="1" fill="#404081"/>
<rect x="16" y="15" width="1" height="1" fill="#1C1A40"/>
<rect x="17" y="15" width="1" height="1" fill="#1F1E41"/>
<rect x="18" y="15" width="1" height="1" fill="#151037"/>
<rect x="19" y="15" width="1" height="1" fill="#19143B"/>
<rect x="20" y="15" width="1" height="1" fill="#BCBBCB"/>
<rect x="21" y="15" width="1" height="1" fill="#151037"/>
<rect x="22" y="15" width="1" height="1" fill="#DDDCDF"/>
<rect x="23" y="15" width="1" height="1" fill="#151037"/>
<rect x="0" y="16" width="1" height="1" fill="#8D8A8F"/>
<rect x="1" y="16" width="1" height="1" fill="#0E0B2B"/>
<rect x="2" y="16" width="1" height="1" fill="#151037"/>
<rect x="3" y="16" width="1" height="1" fill="#5F5B75"/>
<rect x="4" y="16" width="1" height="1" fill="#151037"/>
<rect x="5" y="16" width="1" height="1" fill="#151037"/>
<rect x="6" y="16" width="1" height="1" fill="#151037"/>
<rect x="7" y="16" width="1" height="1" fill="#171535"/>
<rect x="8" y="16" width="1" height="1" fill="#E6E3E3"/>
<rect x="9" y="16" width="1" height="1" fill="#0F1037"/>
<rect x="10" y="16" width="1" height="1" fill="#2ECEE1"/>
<rect x="11" y="16" width="1" height="1" fill="#31D4E1"/>
<rect x="12" y="16" width="1" height="1" fill="#3E3D75"/>
<rect x="13" y="16" width="1" height="1" fill="#111540"/>
<rect x="14" y="16" width="1" height="1" fill="#3D3B73"/>
<rect x="15" y="16" width="1" height="1" fill="#151037"/>
<rect x="16" y="16" width="1" height="1" fill="#110E35"/>
<rect x="17" y="16" width="1" height="1" fill="#1F1E41"/>
<rect x="18" y="16" width="1" height="1" fill="#43425A"/>
<rect x="19" y="16" width="1" height="1" fill="#0D0A27"/>
<rect x="20" y="16" width="1" height="1" fill="#BCBBCB"/>
<rect x="21" y="16" width="1" height="1" fill="#151037"/>
<rect x="22" y="16" width="1" height="1" fill="#151037"/>
<rect x="23" y="16" width="1" height="1" fill="#151037"/>
<rect x="0" y="17" width="1" height="1" fill="#8F8991"/>
<rect x="1" y="17" width="1" height="1" fill="#0E0B2D"/>
<rect x="2" y="17" width="1" height="1" fill="#151037"/>
<rect x="3" y="17" width="1" height="1" fill="#7E7C90"/>
<rect x="4" y="17" width="1" height="1" fill="#D5D4D4"/>
<rect x="5" y="17" width="1" height="1" fill="#151037"/>
<rect x="6" y="17" width="1" height="1" fill="#25203B"/>
<rect x="7" y="17" width="1" height="1" fill="#1D1B38"/>
<rect x="8" y="17" width="1" height="1" fill="#0F1037"/>
<rect x="9" y="17" width="1" height="1" fill="#30CADE"/>
<rect x="10" y="17" width="1" height="1" fill="#3D3B70"/>
<rect x="11" y="17" width="1" height="1" fill="#43417F"/>
<rect x="12" y="17" width="1" height="1" fill="#12EEF7"/>
<rect x="13" y="17" width="1" height="1" fill="#0D0E38"/>
<rect x="14" y="17" width="1" height="1" fill="#195386"/>
<rect x="15" y="17" width="1" height="1" fill="#0D5888"/>
<rect x="16" y="17" width="1" height="1" fill="#1B5588"/>
<rect x="17" y="17" width="1" height="1" fill="#1B5588"/>
<rect x="18" y="17" width="1" height="1" fill="#100E39"/>
<rect x="19" y="17" width="1" height="1" fill="#161334"/>
<rect x="20" y="17" width="1" height="1" fill="#151037"/>
<rect x="21" y="17" width="1" height="1" fill="#151037"/>
<rect x="22" y="17" width="1" height="1" fill="#D5D4D9"/>
<rect x="23" y="17" width="1" height="1" fill="#C7C6C8"/>
<rect x="0" y="18" width="1" height="1" fill="#787781"/>
<rect x="1" y="18" width="1" height="1" fill="#C7C6C6"/>
<rect x="2" y="18" width="1" height="1" fill="#151037"/>
<rect x="3" y="18" width="1" height="1" fill="#423F5C"/>
<rect x="4" y="18" width="1" height="1" fill="#D5D4D4"/>
<rect x="5" y="18" width="1" height="1" fill="#4C4B59"/>
<rect x="6" y="18" width="1" height="1" fill="#27D4E0"/>
<rect x="7" y="18" width="1" height="1" fill="#091839"/>
<rect x="8" y="18" width="1" height="1" fill="#2F2D4A"/>
<rect x="9" y="18" width="1" height="1" fill="#01213E"/>
<rect x="10" y="18" width="1" height="1" fill="#454486"/>
<rect x="11" y="18" width="1" height="1" fill="#42407D"/>
<rect x="12" y="18" width="1" height="1" fill="#0C0B31"/>
<rect x="13" y="18" width="1" height="1" fill="#2DD0E8"/>
<rect x="14" y="18" width="1" height="1" fill="#0F0D39"/>
<rect x="15" y="18" width="1" height="1" fill="#0F0D39"/>
<rect x="16" y="18" width="1" height="1" fill="#2ED3E1"/>
<rect x="17" y="18" width="1" height="1" fill="#151A3F"/>
<rect x="18" y="18" width="1" height="1" fill="#B7B1BF"/>
<rect x="19" y="18" width="1" height="1" fill="#4B4667"/>
<rect x="20" y="18" width="1" height="1" fill="#151037"/>
<rect x="21" y="18" width="1" height="1" fill="#151037"/>
<rect x="22" y="18" width="1" height="1" fill="#211E33"/>
<rect x="23" y="18" width="1" height="1" fill="#9D9CA6"/>
<rect x="1" y="19" width="1" height="1" fill="#C7C6C6"/>
<rect x="2" y="19" width="1" height="1" fill="#B3B1BA"/>
<rect x="3" y="19" width="1" height="1" fill="#4D4A5D"/>
<rect x="4" y="19" width="1" height="1" fill="#151037"/>
<rect x="5" y="19" width="1" height="1" fill="#ABAAB2"/>
<rect x="6" y="19" width="1" height="1" fill="#6D6B79"/>
<rect x="7" y="19" width="1" height="1" fill="#6D6B79"/>
<rect x="8" y="19" width="1" height="1" fill="#211C3A"/>
<rect x="9" y="19" width="1" height="1" fill="#30C4DA"/>
<rect x="10" y="19" width="1" height="1" fill="#02193A"/>
<rect x="11" y="19" width="1" height="1" fill="#1A4F83"/>
<rect x="12" y="19" width="1" height="1" fill="#40417F"/>
<rect x="13" y="19" width="1" height="1" fill="#14E8F1"/>
<rect x="14" y="19" width="1" height="1" fill="#23DCEA"/>
<rect x="15" y="19" width="1" height="1" fill="#100F37"/>
<rect x="16" y="19" width="1" height="1" fill="#0F0C31"/>
<rect x="17" y="19" width="1" height="1" fill="#2E2A45"/>
<rect x="18" y="19" width="1" height="1" fill="#A7A5AC"/>
<rect x="19" y="19" width="1" height="1" fill="#524E6D"/>
<rect x="20" y="19" width="1" height="1" fill="#110C2E"/>
<rect x="21" y="19" width="1" height="1" fill="#69657D"/>
<rect x="22" y="19" width="1" height="1" fill="#171334"/>
<rect x="1" y="20" width="1" height="1" fill="#E5E5E4"/>
<rect x="2" y="20" width="1" height="1" fill="#C7C6C6"/>
<rect x="3" y="20" width="1" height="1" fill="#151037"/>
<rect x="4" y="20" width="1" height="1" fill="#151037"/>
<rect x="5" y="20" width="1" height="1" fill="#151037"/>
<rect x="6" y="20" width="1" height="1" fill="#88848B"/>
<rect x="7" y="20" width="1" height="1" fill="#716F7F"/>
<rect x="8" y="20" width="1" height="1" fill="#2F2B4D"/>
<rect x="9" y="20" width="1" height="1" fill="#41407C"/>
<rect x="10" y="20" width="1" height="1" fill="#72CADE"/>
<rect x="11" y="20" width="1" height="1" fill="#40417F"/>
<rect x="12" y="20" width="1" height="1" fill="#494884"/>
<rect x="13" y="20" width="1" height="1" fill="#5B5A85"/>
<rect x="14" y="20" width="1" height="1" fill="#120E33"/>
<rect x="15" y="20" width="1" height="1" fill="#120E33"/>
<rect x="16" y="20" width="1" height="1" fill="#7B7886"/>
<rect x="17" y="20" width="1" height="1" fill="#1E1738"/>
<rect x="18" y="20" width="1" height="1" fill="#10E4ED"/>
<rect x="19" y="20" width="1" height="1" fill="#022344"/>
<rect x="20" y="20" width="1" height="1" fill="#151037"/>
<rect x="21" y="20" width="1" height="1" fill="#534F67"/>
<rect x="22" y="20" width="1" height="1" fill="#171334"/>
<rect x="2" y="21" width="1" height="1" fill="#151037"/>
<rect x="3" y="21" width="1" height="1" fill="#84828B"/>
<rect x="4" y="21" width="1" height="1" fill="#151037"/>
<rect x="5" y="21" width="1" height="1" fill="#AEABBA"/>
<rect x="6" y="21" width="1" height="1" fill="#656276"/>
<rect x="7" y="21" width="1" height="1" fill="#908E96"/>
<rect x="8" y="21" width="1" height="1" fill="#413E5E"/>
<rect x="9" y="21" width="1" height="1" fill="#181439"/>
<rect x="10" y="21" width="1" height="1" fill="#15E3E7"/>
<rect x="11" y="21" width="1" height="1" fill="#26D8DF"/>
<rect x="12" y="21" width="1" height="1" fill="#31C9D5"/>
<rect x="13" y="21" width="1" height="1" fill="#78ECEE"/>
<rect x="14" y="21" width="1" height="1" fill="#151037"/>
<rect x="15" y="21" width="1" height="1" fill="#989697"/>
<rect x="16" y="21" width="1" height="1" fill="#DDDAE2"/>
<rect x="17" y="21" width="1" height="1" fill="#120D2C"/>
<rect x="18" y="21" width="1" height="1" fill="#042D4D"/>
<rect x="19" y="21" width="1" height="1" fill="#042A4D"/>
<rect x="20" y="21" width="1" height="1" fill="#012648"/>
<rect x="21" y="21" width="1" height="1" fill="#4E4B5D"/>
<rect x="22" y="21" width="1" height="1" fill="#151037"/>
<rect x="3" y="22" width="1" height="1" fill="#84828B"/>
<rect x="4" y="22" width="1" height="1" fill="#605E6E"/>
<rect x="5" y="22" width="1" height="1" fill="#151037"/>
<rect x="6" y="22" width="1" height="1" fill="#151037"/>
<rect x="7" y="22" width="1" height="1" fill="#9B95A0"/>
<rect x="8" y="22" width="1" height="1" fill="#5B586E"/>
<rect x="9" y="22" width="1" height="1" fill="#464580"/>
<rect x="10" y="22" width="1" height="1" fill="#79789D"/>
<rect x="11" y="22" width="1" height="1" fill="#062B51"/>
<rect x="12" y="22" width="1" height="1" fill="#4D4D88"/>
<rect x="13" y="22" width="1" height="1" fill="#464580"/>
<rect x="14" y="22" width="1" height="1" fill="#151037"/>
<rect x="15" y="22" width="1" height="1" fill="#151037"/>
<rect x="16" y="22" width="1" height="1" fill="#100C2C"/>
<rect x="17" y="22" width="1" height="1" fill="#D9D7D7"/>
<rect x="18" y="22" width="1" height="1" fill="#052E51"/>
<rect x="19" y="22" width="1" height="1" fill="#012648"/>
<rect x="20" y="22" width="1" height="1" fill="#012648"/>
<rect x="21" y="22" width="1" height="1" fill="#101C38"/>
<rect x="4" y="23" width="1" height="1" fill="#868586"/>
<rect x="5" y="23" width="1" height="1" fill="#151037"/>
<rect x="6" y="23" width="1" height="1" fill="#151037"/>
<rect x="7" y="23" width="1" height="1" fill="#151037"/>
<rect x="8" y="23" width="1" height="1" fill="#0E0B26"/>
<rect x="9" y="23" width="1" height="1" fill="#151037"/>
<rect x="10" y="23" width="1" height="1" fill="#8282A8"/>
<rect x="11" y="23" width="1" height="1" fill="#464580"/>
<rect x="12" y="23" width="1" height="1" fill="#4D4D88"/>
<rect x="13" y="23" width="1" height="1" fill="#B6B6B6"/>
<rect x="14" y="23" width="1" height="1" fill="#B8B7BE"/>
<rect x="15" y="23" width="1" height="1" fill="#151037"/>
<rect x="16" y="23" width="1" height="1" fill="#D9D7D7"/>
<rect x="17" y="23" width="1" height="1" fill="#1C173C"/>
<rect x="18" y="23" width="1" height="1" fill="#1C173C"/>
<rect x="19" y="23" width="1" height="1" fill="#5C596E"/>
<rect x="20" y="23" width="1" height="1" fill="#151037"/>
</svg>