<svg xmlns="http://www.w3.org/2000/svg" viewBox="0 0 256 256" shape-rendering="crispEdges">


<g>
<rect x="48" y="32" width="16" height="16" fill="#0ea5e9"/>
<rect x="160" y="32" width="16" height="16" fill="#0ea5e9"/>
<rect x="64" y="48" width="16" height="16" fill="#3b82f6"/>
<rect x="144" y="48" width="16" height="16" fill="#3b82f6"/>
<rect x="48" y="64" width="16" height="16" fill="#3b82f6"/>
<rect x="64" y="64" width="16" height="16" fill="#3b82f6"/>
<rect x="80" y="64" width="16" height="16" fill="#3b82f6"/>
<rect x="96" y="64" width="16" height="16" fill="#3b82f6"/>
<rect x="112" y="64" width="16" height="16" fill="#3b82f6"/>
<rect x="128" y="64" width="16" height="16" fill="#3b82f6"/>
<rect x="144" y="64" width="16" height="16" fill="#3b82f6"/>
<rect x="160" y="64" width="16" height="16" fill="#3b82f6"/>
<rect x="32" y="80" width="16" height="16" fill="#3b82f6"/>
<rect x="48" y="80" width="16" height="16" fill="#3b82f6"/>
<rect x="64" y="80" width="16" height="16" fill="#d946ef"/>
<rect x="80" y="80" width="16" height="16" fill="#3b82f6"/>
<rect x="96" y="80" width="16" height="16" fill="#3b82f6"/>
<rect x="112" y="80" width="16" height="16" fill="#3b82f6"/>
<rect x="128" y="80" width="16" height="16" fill="#3b82f6"/>
<rect x="144" y="80" width="16" height="16" fill="#06b6d4"/>
<rect x="160" y="80" width="16" height="16" fill="#3b82f6"/>
<rect x="176" y="80" width="16" height="16" fill="#3b82f6"/>
<rect x="16" y="96" width="16" height="16" fill="#3b82f6"/>
<rect x="32" y="96" width="16" height="16" fill="#3b82f6"/>
<rect x="48" y="96" width="16" height="16" fill="#3b82f6"/>
<rect x="64" y="96" width="16" height="16" fill="#3b82f6"/>
<rect x="80" y="96" width="16" height="16" fill="#3b82f6"/>
<rect x="96" y="96" width="16" height="16" fill="#3b82f6"/>
<rect x="112" y="96" width="16" height="16" fill="#3b82f6"/>
<rect x="128" y="96" width="16" height="16" fill="#3b82f6"/>
<rect x="144" y="96" width="16" height="16" fill="#3b82f6"/>
<rect x="160" y="96" width="16" height="16" fill="#3b82f6"/>
<rect x="176" y="96" width="16" height="16" fill="#3b82f6"/>
<rect x="192" y="96" width="16" height="16" fill="#3b82f6"/>
<rect x="16" y="112" width="16" height="16" fill="#3b82f6"/>
<rect x="48" y="112" width="16" height="16" fill="#3b82f6"/>
<rect x="64" y="112" width="16" height="16" fill="#3b82f6"/>
<rect x="80" y="112" width="16" height="16" fill="#3b82f6"/>
<rect x="96" y="112" width="16" height="16" fill="#3b82f6"/>
<rect x="112" y="112" width="16" height="16" fill="#3b82f6"/>
<rect x="128" y="112" width="16" height="16" fill="#3b82f6"/>
<rect x="144" y="112" width="16" height="16" fill="#3b82f6"/>
<rect x="160" y="112" width="16" height="16" fill="#3b82f6"/>
<rect x="192" y="112" width="16" height="16" fill="#3b82f6"/>
<rect x="16" y="128" width="16" height="16" fill="#06b6d4"/>
<rect x="64" y="128" width="16" height="16" fill="#3b82f6"/>
<rect x="128" y="128" width="16" height="16" fill="#3b82f6"/>
<rect x="192" y="128" width="16" height="16" fill="#d946ef"/>
<rect x="64" y="144" width="16" height="16" fill="#3b82f6"/>
<rect x="80" y="144" width="16" height="16" fill="#3b82f6"/>
<rect x="96" y="144" width="16" height="16" fill="#0ea5e9"/>
<rect x="128" y="144" width="16" height="16" fill="#3b82f6"/>
<rect x="144" y="144" width="16" height="16" fill="#3b82f6"/>
<rect x="160" y="144" width="16" height="16" fill="#0ea5e9"/>
</g>
</svg>